<mxfile host="65bd71144e">
    <diagram id="yWWje8ebZJjOFgWd-YYD" name="Page-1">
        <mxGraphModel dx="429" dy="290" grid="1" gridSize="10" guides="1" tooltips="1" connect="1" arrows="1" fold="1" page="1" pageScale="1" pageWidth="850" pageHeight="1100" math="0" shadow="0">
            <root>
                <mxCell id="0"/>
                <mxCell id="1" parent="0"/>
                <mxCell id="2" value="" style="whiteSpace=wrap;html=1;aspect=fixed;" parent="1" vertex="1">
                    <mxGeometry x="60" y="120" width="700" height="700" as="geometry"/>
                </mxCell>
                <mxCell id="21" value="MaterialManager&lt;br&gt;(Node)" style="whiteSpace=wrap;html=1;aspect=fixed;verticalAlign=top;" parent="1" vertex="1">
                    <mxGeometry x="70" y="400" width="230" height="230" as="geometry"/>
                </mxCell>
                <mxCell id="3" value="NodeGraph&lt;br&gt;&lt;br&gt;NodeGraph is responsible for live time of all node objects" style="text;html=1;strokeColor=none;fillColor=none;align=center;verticalAlign=middle;whiteSpace=wrap;rounded=0;" parent="1" vertex="1">
                    <mxGeometry x="60" y="130" width="150" height="90" as="geometry"/>
                </mxCell>
                <mxCell id="4" value="Root" style="whiteSpace=wrap;html=1;aspect=fixed;" parent="1" vertex="1">
                    <mxGeometry x="270" y="130" width="110" height="110" as="geometry"/>
                </mxCell>
                <mxCell id="5" value="Object" style="whiteSpace=wrap;html=1;aspect=fixed;" parent="1" vertex="1">
                    <mxGeometry x="210" y="280" width="80" height="80" as="geometry"/>
                </mxCell>
                <mxCell id="6" value="" style="endArrow=none;dashed=1;html=1;dashPattern=1 3;strokeWidth=2;exitX=0.5;exitY=0;exitDx=0;exitDy=0;entryX=0.5;entryY=1;entryDx=0;entryDy=0;" parent="1" source="5" target="4" edge="1">
                    <mxGeometry width="50" height="50" relative="1" as="geometry">
                        <mxPoint x="170" y="270" as="sourcePoint"/>
                        <mxPoint x="220" y="220" as="targetPoint"/>
                        <Array as="points">
                            <mxPoint x="250" y="260"/>
                            <mxPoint x="295" y="260"/>
                        </Array>
                    </mxGeometry>
                </mxCell>
                <mxCell id="7" value="RenderNode&lt;br&gt;(Node that represent renderer each node connected to this node will be rendered)&lt;br&gt;&lt;br&gt;If object node meet criteria" style="whiteSpace=wrap;html=1;aspect=fixed;" parent="1" vertex="1">
                    <mxGeometry x="120" y="665" width="130" height="130" as="geometry"/>
                </mxCell>
                <mxCell id="23" value="" style="edgeStyle=none;html=1;" parent="1" source="9" target="5" edge="1">
                    <mxGeometry relative="1" as="geometry"/>
                </mxCell>
                <mxCell id="9" value="Material 1" style="whiteSpace=wrap;html=1;aspect=fixed;" parent="1" vertex="1">
                    <mxGeometry x="210" y="450" width="80" height="80" as="geometry"/>
                </mxCell>
                <mxCell id="10" value="" style="endArrow=none;dashed=1;html=1;dashPattern=1 3;strokeWidth=2;entryX=0.5;entryY=1;entryDx=0;entryDy=0;exitX=0.5;exitY=0;exitDx=0;exitDy=0;" parent="1" source="9" target="5" edge="1">
                    <mxGeometry width="50" height="50" relative="1" as="geometry">
                        <mxPoint x="140" y="460" as="sourcePoint"/>
                        <mxPoint x="190" y="410" as="targetPoint"/>
                        <Array as="points">
                            <mxPoint x="250" y="390"/>
                        </Array>
                    </mxGeometry>
                </mxCell>
                <mxCell id="13" value="Material 2" style="whiteSpace=wrap;html=1;aspect=fixed;" parent="1" vertex="1">
                    <mxGeometry x="90" y="450" width="80" height="80" as="geometry"/>
                </mxCell>
                <mxCell id="14" value="Object" style="whiteSpace=wrap;html=1;aspect=fixed;" parent="1" vertex="1">
                    <mxGeometry x="90" y="280" width="80" height="80" as="geometry"/>
                </mxCell>
                <mxCell id="16" value="" style="endArrow=none;dashed=1;html=1;dashPattern=1 3;strokeWidth=2;entryX=0.5;entryY=0;entryDx=0;entryDy=0;exitX=0.5;exitY=1;exitDx=0;exitDy=0;" parent="1" source="13" target="7" edge="1">
                    <mxGeometry width="50" height="50" relative="1" as="geometry">
                        <mxPoint x="260" y="625" as="sourcePoint"/>
                        <mxPoint x="170" y="675" as="targetPoint"/>
                        <Array as="points">
                            <mxPoint x="130" y="645"/>
                            <mxPoint x="190" y="645"/>
                        </Array>
                    </mxGeometry>
                </mxCell>
                <mxCell id="18" value="" style="endArrow=none;dashed=1;html=1;dashPattern=1 3;strokeWidth=2;entryX=0.5;entryY=1;entryDx=0;entryDy=0;exitX=0.5;exitY=0;exitDx=0;exitDy=0;" parent="1" source="13" target="14" edge="1">
                    <mxGeometry width="50" height="50" relative="1" as="geometry">
                        <mxPoint x="260" y="430" as="sourcePoint"/>
                        <mxPoint x="260" y="370" as="targetPoint"/>
                        <Array as="points"/>
                    </mxGeometry>
                </mxCell>
                <mxCell id="19" value="" style="endArrow=none;dashed=1;html=1;dashPattern=1 3;strokeWidth=2;exitX=0.5;exitY=0;exitDx=0;exitDy=0;entryX=0;entryY=0.5;entryDx=0;entryDy=0;" parent="1" target="4" edge="1">
                    <mxGeometry width="50" height="50" relative="1" as="geometry">
                        <mxPoint x="122.5" y="280" as="sourcePoint"/>
                        <mxPoint x="198" y="240" as="targetPoint"/>
                        <Array as="points">
                            <mxPoint x="122.5" y="260"/>
                            <mxPoint x="167.5" y="260"/>
                        </Array>
                    </mxGeometry>
                </mxCell>
                <mxCell id="20" value="" style="endArrow=none;dashed=1;html=1;dashPattern=1 3;strokeWidth=2;entryX=0.75;entryY=0;entryDx=0;entryDy=0;exitX=0.5;exitY=1;exitDx=0;exitDy=0;" parent="1" source="9" target="7" edge="1">
                    <mxGeometry width="50" height="50" relative="1" as="geometry">
                        <mxPoint x="320" y="595" as="sourcePoint"/>
                        <mxPoint x="375" y="645" as="targetPoint"/>
                        <Array as="points">
                            <mxPoint x="250" y="645"/>
                            <mxPoint x="218" y="645"/>
                        </Array>
                    </mxGeometry>
                </mxCell>
                <mxCell id="22" style="edgeStyle=none;html=1;exitX=0.25;exitY=1;exitDx=0;exitDy=0;entryX=0.5;entryY=1;entryDx=0;entryDy=0;" parent="1" source="9" target="9" edge="1">
                    <mxGeometry relative="1" as="geometry"/>
                </mxCell>
                <mxCell id="24" value="Mesh&lt;br&gt;" style="whiteSpace=wrap;html=1;aspect=fixed;" parent="1" vertex="1">
                    <mxGeometry x="510" y="330" width="80" height="80" as="geometry"/>
                </mxCell>
                <mxCell id="26" style="edgeStyle=none;html=1;exitX=0.5;exitY=1;exitDx=0;exitDy=0;entryX=0.5;entryY=0;entryDx=0;entryDy=0;" parent="1" source="25" target="24" edge="1">
                    <mxGeometry relative="1" as="geometry"/>
                </mxCell>
                <mxCell id="25" value="Sphere&lt;br&gt;(Node)" style="whiteSpace=wrap;html=1;aspect=fixed;" parent="1" vertex="1">
                    <mxGeometry x="510" y="200" width="80" height="80" as="geometry"/>
                </mxCell>
                <mxCell id="27" value="" style="whiteSpace=wrap;html=1;aspect=fixed;" parent="1" vertex="1">
                    <mxGeometry x="850" y="20" width="910" height="910" as="geometry"/>
                </mxCell>
                <mxCell id="28" value="MaterialManager&lt;br&gt;(Node)" style="whiteSpace=wrap;html=1;aspect=fixed;verticalAlign=top;" parent="1" vertex="1">
                    <mxGeometry x="920" y="440" width="230" height="230" as="geometry"/>
                </mxCell>
                <mxCell id="30" value="Root" style="whiteSpace=wrap;html=1;aspect=fixed;" parent="1" vertex="1">
                    <mxGeometry x="1110" y="20" width="110" height="110" as="geometry"/>
                </mxCell>
                <mxCell id="50" style="edgeStyle=none;html=1;exitX=1;exitY=0.5;exitDx=0;exitDy=0;entryX=0.5;entryY=1;entryDx=0;entryDy=0;fontSize=24;" parent="1" source="31" target="46" edge="1">
                    <mxGeometry relative="1" as="geometry">
                        <Array as="points">
                            <mxPoint x="1460" y="450"/>
                            <mxPoint x="1460" y="360"/>
                        </Array>
                    </mxGeometry>
                </mxCell>
                <mxCell id="52" style="edgeStyle=none;html=1;entryX=1;entryY=0.25;entryDx=0;entryDy=0;startArrow=none;" parent="1" source="54" target="33" edge="1">
                    <mxGeometry relative="1" as="geometry">
                        <Array as="points">
                            <mxPoint x="1270" y="680"/>
                            <mxPoint x="1270" y="738"/>
                        </Array>
                    </mxGeometry>
                </mxCell>
                <mxCell id="31" value="Camera" style="whiteSpace=wrap;html=1;aspect=fixed;" parent="1" vertex="1">
                    <mxGeometry x="1230" y="410" width="80" height="80" as="geometry"/>
                </mxCell>
                <mxCell id="32" value="" style="endArrow=none;dashed=1;html=1;dashPattern=1 3;strokeWidth=2;exitX=0.5;exitY=0;exitDx=0;exitDy=0;entryX=0.5;entryY=1;entryDx=0;entryDy=0;" parent="1" source="31" target="30" edge="1">
                    <mxGeometry width="50" height="50" relative="1" as="geometry">
                        <mxPoint x="1020" y="310" as="sourcePoint"/>
                        <mxPoint x="1070" y="260" as="targetPoint"/>
                        <Array as="points">
                            <mxPoint x="1270" y="350"/>
                            <mxPoint x="1175" y="350"/>
                        </Array>
                    </mxGeometry>
                </mxCell>
                <mxCell id="33" value="RenderNode&lt;br&gt;(Node that represent renderer each node connected to this node will be rendered)&lt;br&gt;&lt;br&gt;If object node meet criteria" style="whiteSpace=wrap;html=1;aspect=fixed;" parent="1" vertex="1">
                    <mxGeometry x="970" y="705" width="130" height="130" as="geometry"/>
                </mxCell>
                <mxCell id="35" value="Material 1" style="whiteSpace=wrap;html=1;aspect=fixed;" parent="1" vertex="1">
                    <mxGeometry x="1060" y="490" width="80" height="80" as="geometry"/>
                </mxCell>
                <mxCell id="37" value="Material 2" style="whiteSpace=wrap;html=1;aspect=fixed;" parent="1" vertex="1">
                    <mxGeometry x="940" y="490" width="80" height="80" as="geometry"/>
                </mxCell>
                <mxCell id="38" value="Mesh&lt;br&gt;" style="whiteSpace=wrap;html=1;aspect=fixed;" parent="1" vertex="1">
                    <mxGeometry x="940" y="320" width="80" height="80" as="geometry"/>
                </mxCell>
                <mxCell id="39" value="" style="endArrow=none;dashed=1;html=1;dashPattern=1 3;strokeWidth=2;entryX=0.5;entryY=0;entryDx=0;entryDy=0;exitX=0.5;exitY=1;exitDx=0;exitDy=0;" parent="1" source="37" target="33" edge="1">
                    <mxGeometry width="50" height="50" relative="1" as="geometry">
                        <mxPoint x="1110" y="665" as="sourcePoint"/>
                        <mxPoint x="1020" y="715" as="targetPoint"/>
                        <Array as="points">
                            <mxPoint x="980" y="685"/>
                            <mxPoint x="1040" y="685"/>
                        </Array>
                    </mxGeometry>
                </mxCell>
                <mxCell id="40" value="" style="endArrow=none;dashed=1;html=1;dashPattern=1 3;strokeWidth=2;entryX=0.5;entryY=1;entryDx=0;entryDy=0;exitX=0.5;exitY=0;exitDx=0;exitDy=0;" parent="1" source="37" target="38" edge="1">
                    <mxGeometry width="50" height="50" relative="1" as="geometry">
                        <mxPoint x="1110" y="470" as="sourcePoint"/>
                        <mxPoint x="1110" y="410" as="targetPoint"/>
                        <Array as="points"/>
                    </mxGeometry>
                </mxCell>
                <mxCell id="41" value="" style="endArrow=none;dashed=1;html=1;dashPattern=1 3;strokeWidth=2;entryX=0;entryY=0.5;entryDx=0;entryDy=0;exitX=1;exitY=0.5;exitDx=0;exitDy=0;" parent="1" source="38" target="30" edge="1">
                    <mxGeometry width="50" height="50" relative="1" as="geometry">
                        <mxPoint x="972.5" y="320" as="sourcePoint"/>
                        <mxPoint x="1048" y="280" as="targetPoint"/>
                        <Array as="points">
                            <mxPoint x="1090" y="360"/>
                            <mxPoint x="1090" y="75"/>
                        </Array>
                    </mxGeometry>
                </mxCell>
                <mxCell id="42" value="" style="endArrow=none;dashed=1;html=1;dashPattern=1 3;strokeWidth=2;entryX=0.75;entryY=0;entryDx=0;entryDy=0;exitX=0.5;exitY=1;exitDx=0;exitDy=0;" parent="1" source="35" target="33" edge="1">
                    <mxGeometry width="50" height="50" relative="1" as="geometry">
                        <mxPoint x="1170" y="635" as="sourcePoint"/>
                        <mxPoint x="1225" y="685" as="targetPoint"/>
                        <Array as="points">
                            <mxPoint x="1100" y="685"/>
                            <mxPoint x="1068" y="685"/>
                        </Array>
                    </mxGeometry>
                </mxCell>
                <mxCell id="46" value="SceneDataBase" style="whiteSpace=wrap;html=1;aspect=fixed;" parent="1" vertex="1">
                    <mxGeometry x="1400" y="180" width="120" height="120" as="geometry"/>
                </mxCell>
                <mxCell id="51" value="&lt;font style=&quot;font-size: 12px;&quot;&gt;Create object and put it into scendatabase&lt;/font&gt;" style="text;html=1;strokeColor=none;fillColor=none;align=center;verticalAlign=middle;whiteSpace=wrap;rounded=0;fontSize=24;" parent="1" vertex="1">
                    <mxGeometry x="1260" y="310" width="140" height="40" as="geometry"/>
                </mxCell>
                <mxCell id="53" value="" style="edgeStyle=none;html=1;entryX=1;entryY=0.25;entryDx=0;entryDy=0;endArrow=none;" parent="1" source="31" target="54" edge="1">
                    <mxGeometry relative="1" as="geometry">
                        <mxPoint x="1270" y="489.9999999999999" as="sourcePoint"/>
                        <mxPoint x="1100" y="737.5" as="targetPoint"/>
                        <Array as="points"/>
                    </mxGeometry>
                </mxCell>
                <mxCell id="54" value="" style="ellipse;whiteSpace=wrap;html=1;aspect=fixed;fillColor=#60a917;fontColor=#ffffff;strokeColor=#2D7600;" parent="1" vertex="1">
                    <mxGeometry x="1260" y="480" width="20" height="20" as="geometry"/>
                </mxCell>
                <mxCell id="56" style="edgeStyle=none;html=1;exitX=0.5;exitY=1;exitDx=0;exitDy=0;entryX=0.5;entryY=0;entryDx=0;entryDy=0;startArrow=none;" parent="1" source="59" target="38" edge="1">
                    <mxGeometry relative="1" as="geometry"/>
                </mxCell>
                <mxCell id="55" value="Plane" style="whiteSpace=wrap;html=1;aspect=fixed;" parent="1" vertex="1">
                    <mxGeometry x="940" y="170" width="80" height="80" as="geometry"/>
                </mxCell>
                <mxCell id="58" value="" style="edgeStyle=none;html=1;exitX=0.5;exitY=1;exitDx=0;exitDy=0;entryX=0.5;entryY=0;entryDx=0;entryDy=0;endArrow=none;" parent="1" source="55" target="59" edge="1">
                    <mxGeometry relative="1" as="geometry">
                        <mxPoint x="979.9999999999998" y="250" as="sourcePoint"/>
                        <mxPoint x="979.9999999999998" y="320" as="targetPoint"/>
                    </mxGeometry>
                </mxCell>
                <mxCell id="59" value="" style="ellipse;whiteSpace=wrap;html=1;aspect=fixed;fillColor=#a20025;fontColor=#ffffff;strokeColor=#6F0000;" parent="1" vertex="1">
                    <mxGeometry x="970" y="240" width="20" height="20" as="geometry"/>
                </mxCell>
                <mxCell id="60" value="" style="ellipse;whiteSpace=wrap;html=1;aspect=fixed;fillColor=#6a00ff;fontColor=#ffffff;strokeColor=#3700CC;" parent="1" vertex="1">
                    <mxGeometry x="970" y="390" width="20" height="20" as="geometry"/>
                </mxCell>
                <mxCell id="62" style="edgeStyle=none;html=1;exitX=0.5;exitY=1;exitDx=0;exitDy=0;entryX=0.25;entryY=0;entryDx=0;entryDy=0;" parent="1" source="61" target="38" edge="1">
                    <mxGeometry relative="1" as="geometry">
                        <Array as="points">
                            <mxPoint x="890" y="280"/>
                        </Array>
                    </mxGeometry>
                </mxCell>
                <mxCell id="63" style="edgeStyle=none;html=1;exitX=0.75;exitY=1;exitDx=0;exitDy=0;entryX=0.5;entryY=0;entryDx=0;entryDy=0;" parent="1" source="61" target="38" edge="1">
                    <mxGeometry relative="1" as="geometry">
                        <Array as="points">
                            <mxPoint x="910" y="270"/>
                        </Array>
                    </mxGeometry>
                </mxCell>
                <mxCell id="64" style="edgeStyle=none;html=1;exitX=0.25;exitY=1;exitDx=0;exitDy=0;entryX=0;entryY=0;entryDx=0;entryDy=0;startArrow=none;" parent="1" source="65" target="38" edge="1">
                    <mxGeometry relative="1" as="geometry">
                        <Array as="points">
                            <mxPoint x="870" y="300"/>
                        </Array>
                    </mxGeometry>
                </mxCell>
                <mxCell id="61" value="Transform&lt;br&gt;" style="whiteSpace=wrap;html=1;aspect=fixed;" parent="1" vertex="1">
                    <mxGeometry x="850" y="170" width="80" height="80" as="geometry"/>
                </mxCell>
                <mxCell id="66" value="" style="edgeStyle=none;html=1;exitX=0.25;exitY=1;exitDx=0;exitDy=0;entryX=0;entryY=0;entryDx=0;entryDy=0;endArrow=none;" parent="1" source="61" target="65" edge="1">
                    <mxGeometry relative="1" as="geometry">
                        <mxPoint x="870" y="250" as="sourcePoint"/>
                        <mxPoint x="940" y="320" as="targetPoint"/>
                        <Array as="points"/>
                    </mxGeometry>
                </mxCell>
                <mxCell id="65" value="" style="ellipse;whiteSpace=wrap;html=1;aspect=fixed;fillColor=#3AA929;strokeColor=#2D7600;fontColor=#ffffff;" parent="1" vertex="1">
                    <mxGeometry x="860" y="245" width="10" height="10" as="geometry"/>
                </mxCell>
                <mxCell id="67" value="" style="ellipse;whiteSpace=wrap;html=1;aspect=fixed;fillColor=#3AA929;strokeColor=#2D7600;fontColor=#ffffff;" parent="1" vertex="1">
                    <mxGeometry x="885" y="245" width="10" height="10" as="geometry"/>
                </mxCell>
                <mxCell id="68" value="" style="ellipse;whiteSpace=wrap;html=1;aspect=fixed;fillColor=#3AA929;strokeColor=#2D7600;fontColor=#ffffff;" parent="1" vertex="1">
                    <mxGeometry x="910" y="245" width="10" height="10" as="geometry"/>
                </mxCell>
                <mxCell id="69" value="" style="whiteSpace=wrap;html=1;aspect=fixed;rounded=1;" vertex="1" parent="1">
                    <mxGeometry x="960" y="1080" width="160" height="160" as="geometry"/>
                </mxCell>
                <mxCell id="70" value="" style="whiteSpace=wrap;html=1;rounded=1;fillColor=#4A3E59;arcSize=160;absoluteArcSize=1;" vertex="1" parent="1">
                    <mxGeometry x="960" y="1080" width="160" height="30" as="geometry"/>
                </mxCell>
                <mxCell id="71" value="" style="whiteSpace=wrap;html=1;rounded=1;fillColor=#4A3E59;arcSize=0;absoluteArcSize=1;" vertex="1" parent="1">
                    <mxGeometry x="950" y="1130" width="20" height="10" as="geometry"/>
                </mxCell>
                <mxCell id="72" value="Transformation" style="text;html=1;strokeColor=none;fillColor=none;align=center;verticalAlign=middle;whiteSpace=wrap;rounded=0;sketch=0;" vertex="1" parent="1">
                    <mxGeometry x="1000" y="1120" width="60" height="30" as="geometry"/>
                </mxCell>
                <mxCell id="76" value="+" style="rounded=0;whiteSpace=wrap;html=1;labelBorderColor=none;sketch=0;fillColor=none;" vertex="1" parent="1">
                    <mxGeometry x="972.5" y="1127.5" width="15" height="15" as="geometry"/>
                </mxCell>
            </root>
        </mxGraphModel>
    </diagram>
</mxfile>